{
  "accessors": [
    {
      "bufferView": 2,
      "componentType": 5126,
      "count": 65532,
      "max": [67.28720092773438, 57.38462829589844, 107.80909729003906],
      "min": [-69.49568176269531, -7.317307949066162, -105.48660278320313],
      "type": "VEC3"
    },
    {
      "bufferView": 2,
      "byteOffset": 786384,
      "componentType": 5126,
      "count": 65532,
      "max": [0.9999387860298157, 0.9999875426292419, 1.0],
      "min": [-1.0, -0.9999762177467346, -0.9999886155128479],
      "type": "VEC3"
    },
    {
      "bufferView": 3,
      "componentType": 5126,
      "count": 65532,
      "max": [1.0, 0.9999616146087646, 0.9999993443489075, 1.0],
      "min": [-0.9999948143959045, -1.0, -0.9999887943267822, -1.0],
      "type": "VEC4"
    },
    {
      "bufferView": 1,
      "componentType": 5126,
      "count": 65532,
      "max": [0.9879999756813049, 0.9900000095367432],
      "min": [0.009999999776482582, 0.014000000432133675],
      "type": "VEC2"
    },
    {
      "bufferView": 0,
      "componentType": 5125,
      "count": 355602,
      "type": "SCALAR"
    },
    {
      "bufferView": 2,
      "byteOffset": 1572768,
      "componentType": 5126,
      "count": 40399,
      "max": [69.62208557128906, 55.92148208618164, 107.8114013671875],
      "min": [-63.73477554321289, -7.0885138511657715, -105.44155883789063],
      "type": "VEC3"
    },
    {
      "bufferView": 2,
      "byteOffset": 2057556,
      "componentType": 5126,
      "count": 40399,
      "max": [0.9999843835830688, 0.9999535083770752, 1.0],
      "min": [-0.9999549984931946, -0.9999894499778748, -0.9998696446418762],
      "type": "VEC3"
    },
    {
      "bufferView": 3,
      "byteOffset": 1048512,
      "componentType": 5126,
      "count": 40399,
      "max": [1.0, 0.9999616146087646, 0.9999896883964539, 1.0],
      "min": [
        -0.9999948143959045, -0.9999445080757141, -0.9999948143959045, -1.0
      ],
      "type": "VEC4"
    },
    {
      "bufferView": 1,
      "byteOffset": 524256,
      "componentType": 5126,
      "count": 40399,
      "max": [0.9722350239753723, 1.0],
      "min": [0.0, 0.009999999776482582],
      "type": "VEC2"
    },
    {
      "bufferView": 0,
      "byteOffset": 1422408,
      "componentType": 5125,
      "count": 201540,
      "type": "SCALAR"
    },
    {
      "bufferView": 2,
      "byteOffset": 2542344,
      "componentType": 5126,
      "count": 11041,
      "max": [28.435237884521484, 47.56502914428711, 13.888251304626465],
      "min": [-28.414602279663086, -1.4701329469680786, -22.411720275878906],
      "type": "VEC3"
    },
    {
      "bufferView": 2,
      "byteOffset": 2674836,
      "componentType": 5126,
      "count": 11041,
      "max": [0.9999434947967529, 0.9998761415481567, 0.9999513626098633],
      "min": [-0.9996610283851624, -0.99992835521698, -0.9982566237449646],
      "type": "VEC3"
    },
    {
      "bufferView": 3,
      "byteOffset": 1694896,
      "componentType": 5126,
      "count": 11041,
      "max": [0.9999369978904724, 0.9999356865882874, 0.8673722743988037, 1.0],
      "min": [
        -0.9697492718696594, -0.9969727396965027, -0.9999879598617554, 1.0
      ],
      "type": "VEC4"
    },
    {
      "bufferView": 1,
      "byteOffset": 847448,
      "componentType": 5126,
      "count": 11041,
      "max": [0.9700000286102295, 0.9580000042915344],
      "min": [0.16629700362682343, 0.012000000104308128],
      "type": "VEC2"
    },
    {
      "bufferView": 0,
      "byteOffset": 2228568,
      "componentType": 5125,
      "count": 63264,
      "type": "SCALAR"
    }
  ],
  "asset": {
    "extras": {
      "author": "Davyd Vidiger (https://sketchfab.com/cryunreal)",
      "license": "CC-BY-4.0 (http://creativecommons.org/licenses/by/4.0/)",
      "source": "https://sketchfab.com/3d-models/super-human-7aa58e978b9f4357b8e73d8e0440c896",
      "title": "Super Human"
    },
    "generator": "Sketchfab-12.68.0",
    "version": "2.0"
  },
  "bufferViews": [
    {
      "buffer": 0,
      "byteLength": 2481624,
      "name": "floatBufferViews",
      "target": 34963
    },
    {
      "buffer": 0,
      "byteLength": 935776,
      "byteOffset": 2481624,
      "byteStride": 8,
      "name": "floatBufferViews",
      "target": 34962
    },
    {
      "buffer": 0,
      "byteLength": 2807328,
      "byteOffset": 3417400,
      "byteStride": 12,
      "name": "floatBufferViews",
      "target": 34962
    },
    {
      "buffer": 0,
      "byteLength": 1871552,
      "byteOffset": 6224728,
      "byteStride": 16,
      "name": "floatBufferViews",
      "target": 34962
    }
  ],
  "buffers": [
    {
      "byteLength": 8096280,
      "uri": "human.bin"
    }
  ],
  "images": [
    {
      "uri": "textures/blinn1SG_emissive.png"
    },
    {
      "uri": "textures/blinn1SG_normal.png"
    },
    {
      "uri": "textures/temp_ldefault1_normal.png"
    }
  ],
  "materials": [
    {
      "doubleSided": true,
      "emissiveFactor": [1.0, 1.0, 1.0],
      "emissiveTexture": {
        "index": 0
      },
      "name": "blinn1SG",
      "normalTexture": {
        "index": 1
      },
      "pbrMetallicRoughness": {
        "baseColorFactor": [0.0, 0.0, 0.0, 1.0],
        "metallicFactor": 0.0,
        "roughnessFactor": 0.6
      }
    },
    {
      "doubleSided": true,
      "name": "temp_ldefault1",
      "normalTexture": {
        "index": 2
      },
      "pbrMetallicRoughness": {
        "baseColorFactor": [0.0, 0.0, 0.0, 1.0],
        "metallicFactor": 0.0,
        "roughnessFactor": 0.9
      }
    }
  ],
  "meshes": [
    {
      "name": "Object_0",
      "primitives": [
        {
          "attributes": {
            "NORMAL": 1,
            "POSITION": 0,
            "TANGENT": 2,
            "TEXCOORD_0": 3
          },
          "indices": 4,
          "material": 0,
          "mode": 4
        }
      ]
    },
    {
      "name": "Object_1",
      "primitives": [
        {
          "attributes": {
            "NORMAL": 6,
            "POSITION": 5,
            "TANGENT": 7,
            "TEXCOORD_0": 8
          },
          "indices": 9,
          "material": 0,
          "mode": 4
        }
      ]
    },
    {
      "name": "Object_2",
      "primitives": [
        {
          "attributes": {
            "NORMAL": 11,
            "POSITION": 10,
            "TANGENT": 12,
            "TEXCOORD_0": 13
          },
          "indices": 14,
          "material": 1,
          "mode": 4
        }
      ]
    }
  ],
  "nodes": [
    {
      "children": [1],
      "matrix": [
        1.0, 0.0, 0.0, 0.0, 0.0, 2.220446049250313e-16, -1.0, 0.0, 0.0, 1.0,
        2.220446049250313e-16, 0.0, 0.0, 0.0, 0.0, 1.0
      ],
      "name": "Sketchfab_model"
    },
    {
      "children": [2, 3, 4],
      "name": "temp_l.OBJ.cleaner.gles"
    },
    {
      "mesh": 0,
      "name": "Object_2"
    },
    {
      "mesh": 1,
      "name": "Object_3"
    },
    {
      "mesh": 2,
      "name": "Object_4"
    }
  ],
  "samplers": [
    {
      "magFilter": 9729,
      "minFilter": 9987,
      "wrapS": 10497,
      "wrapT": 10497
    }
  ],
  "scene": 0,
  "scenes": [
    {
      "name": "Sketchfab_Scene",
      "nodes": [0]
    }
  ],
  "textures": [
    {
      "sampler": 0,
      "source": 0
    },
    {
      "sampler": 0,
      "source": 1
    },
    {
      "sampler": 0,
      "source": 2
    }
  ]
}
